HIERARCHY
ROOT Hips
{
  OFFSET 35.5533 98.5456 -5.52103
  CHANNELS 6 Xposition Yposition Zposition Zrotation Xrotation Yrotation
  JOINT spine
  {
    OFFSET 0 8.30104 0.477351
    CHANNELS 3 Zrotation Xrotation Yrotation
    JOINT spine1
    {
      OFFSET 0 10.4565 0
      CHANNELS 3 Zrotation Xrotation Yrotation
      JOINT spine2
      {
        OFFSET 0 10.0192 0
        CHANNELS 3 Zrotation Xrotation Yrotation
        JOINT Neck
        {
          OFFSET 0 25.7235 1.22641
          CHANNELS 3 Zrotation Xrotation Yrotation
          JOINT Head
          {
            OFFSET 0 7.77175 0
            CHANNELS 3 Zrotation Xrotation Yrotation
            End Site
            {
              OFFSET 0 18.812 -6.20394
            }
          }
        }
        JOINT RightShoulder
        {
          OFFSET -4.2188 10.82 -0.587439
          CHANNELS 3 Zrotation Xrotation Yrotation
          JOINT RightArm
          {
            OFFSET 0 14.1914 0
            CHANNELS 3 Zrotation Xrotation Yrotation
            JOINT RightArmRoll
            {
              OFFSET 0 7.16409 0
              CHANNELS 3 Zrotation Xrotation Yrotation
              JOINT RightForeArm
              {
                OFFSET 0 20.8665 0
                CHANNELS 3 Zrotation Xrotation Yrotation
                JOINT RightForeArmRoll
                {
                  OFFSET 0 8.03921 0
                  CHANNELS 3 Zrotation Xrotation Yrotation
                  JOINT RightHand
                  {
                    OFFSET 0 16.133 0
                    CHANNELS 3 Zrotation Xrotation Yrotation
                    End Site
                    {
                      OFFSET 0 0 0
                    }
                  }
                }
              }
            }
          }
        }
        JOINT LeftShoulder
        {
          OFFSET 4.2188 10.82 -0.587439
          CHANNELS 3 Zrotation Xrotation Yrotation
          JOINT LeftArm
          {
            OFFSET 0 14.1914 0
            CHANNELS 3 Zrotation Xrotation Yrotation
            JOINT LeftArmRoll
            {
              OFFSET 0 7.16409 0
              CHANNELS 3 Zrotation Xrotation Yrotation
              JOINT LeftForeArm
              {
                OFFSET 0 20.8665 0
                CHANNELS 3 Zrotation Xrotation Yrotation
                JOINT LeftForeArmRoll
                {
                  OFFSET 0 8.03921 0
                  CHANNELS 3 Zrotation Xrotation Yrotation
                  JOINT LeftHand
                  {
                    OFFSET 0 16.133 0
                    CHANNELS 3 Zrotation Xrotation Yrotation
                    End Site
                    {
                      OFFSET 0 0 0
                    }
                  }
                }
              }
            }
          }
        }
      }
    }
  }
  JOINT RightUpLeg
  {
    OFFSET -7.35773 -1.34921 -1.13181
    CHANNELS 3 Zrotation Xrotation Yrotation
    JOINT RightUpLegRoll
    {
      OFFSET 0 18.9168 0
      CHANNELS 3 Zrotation Xrotation Yrotation
      JOINT RightLeg
      {
        OFFSET 0 -23.4256 0
        CHANNELS 3 Zrotation Xrotation Yrotation
        JOINT RightLegRoll
        {
          OFFSET 0 23.5023 0
          CHANNELS 3 Zrotation Xrotation Yrotation
          JOINT RightFoot
          {
            OFFSET 0 19.5617 0
            CHANNELS 3 Zrotation Xrotation Yrotation
            JOINT RightToeBase
            {
              OFFSET 0 16.3526 0
              CHANNELS 3 Zrotation Xrotation Yrotation
              End Site
              {
                OFFSET 0.00693125 7.91944 -0.912836
              }
            }
          }
        }
      }
    }
  }
  JOINT LeftUpLeg
  {
    OFFSET 7.35773 -1.34921 -1.13181
    CHANNELS 3 Zrotation Xrotation Yrotation
    JOINT LeftUpLegRoll
    {
      OFFSET 0 18.9169 0
      CHANNELS 3 Zrotation Xrotation Yrotation
      JOINT LeftLeg
      {
        OFFSET 0 23.4255 0
        CHANNELS 3 Zrotation Xrotation Yrotation
        JOINT LeftLegRoll
        {
          OFFSET 0 23.7195 0
          CHANNELS 3 Zrotation Xrotation Yrotation
          JOINT LeftFoot
          {
            OFFSET 0 19.3444 0
            CHANNELS 3 Zrotation Xrotation Yrotation
            JOINT LeftToeBase
            {
              OFFSET 0 16.3526 0
              CHANNELS 3 Zrotation Xrotation Yrotation
              End Site
              {
                OFFSET -0.0310629 7.91944 -0.912837
              }
            }
          }
        }
      }
    }
  }
}
MOTION
Frames: 10
Frame Time: 0.00208333
33.8255 100.976 -3.25628 0.844692 -5.44655 3.7318 0.134367 -0.936256 0.268217 0.270924 2.13092 0.521125 0.264929 3.77596 0.516955 -1.36404 22.5422 -1.39087 -0.903098 -13.9491 -2.04357 67.2323 -3.99113 -3.09276 89.1324 12.5133 38.6106 2.65643e-006 2.02977e-006 2.71167e-006 -0.245588 23.553 1.2032 8.06952e-006 -1.04397e-006 -3.00037 8.02907 -4.95144 0.69767 -63.0709 -2.48508 1.93799 -88.5755 5.98655 -26.0403 -1.32963e-005 -1.84543e-006 -2.34952e-006 -5.6906 17.2785 1.84202 1.0838e-005 6.01976e-006 3.0051 -8.02895 -4.95146 -0.697684 178.307 4.63426 1.43583 180 7.01497e-015 178.725 177.522 26.7516 179.221 8.82202e-007 7.64185e-007 0.326961 -17.4221 66.6647 18.5052 8.07338 24.2904 -3.46269 -179.877 4.99251 -0.858676 4.54188e-006 -4.6773e-006 -1.27507 -5.51433 -31.9053 -0.412702 -1.85713e-006 -6.85738e-006 -0.427195 18.5708 68.2795 -19.7447 -8.05621 24.0282 3.44318 
33.8175 100.675 -3.34486 0.870715 -5.44328 3.7726 0.138705 -0.924789 0.2664 0.279362 2.15387 0.516959 0.273427 3.7989 0.512647 -1.60905 22.464 -1.34215 -0.721121 -13.9866 -2.03894 67.2777 -3.96069 -3.07998 89.55 12.4466 38.6767 2.65643e-006 2.02977e-006 2.71167e-006 -0.341746 23.4028 1.24192 8.06952e-006 -1.04397e-006 -3.00037 8.02907 -4.95144 0.69767 -63.2765 -2.39467 1.90556 -88.7719 5.93974 -26.0521 -1.32963e-005 -1.84543e-006 -2.34952e-006 -5.68291 16.8511 1.81026 1.0838e-005 6.01976e-006 3.00511 -8.02895 -4.95146 -0.697684 178.251 4.81632 1.51372 180 7.01496e-015 178.719 177.55 27.3152 179.209 8.82202e-007 7.64185e-007 0.339957 -17.4702 66.7323 18.554 8.08762 24.5041 -3.46826 -179.898 5.11738 -0.951259 4.54188e-006 -4.6773e-006 -1.28318 -5.56797 -32.3211 -0.439893 -1.85713e-006 -6.85738e-006 -0.436247 18.6696 68.3131 -19.7779 -8.07424 24.3014 3.45307 
33.8195 100.44 -3.3474 0.892843 -5.44304 3.81579 0.144003 -0.912007 0.265263 0.289785 2.17945 0.514028 0.283897 3.82449 0.509542 -1.83557 22.3796 -1.30213 -0.553234 -14.0216 -2.03917 67.3211 -3.93615 -3.07012 89.9669 12.3758 38.7314 2.65643e-006 2.02977e-006 2.71167e-006 -0.42487 23.2336 1.27483 8.06952e-006 -1.04397e-006 -3.00038 8.02907 -4.95144 0.69767 -63.4766 -2.30311 1.87229 -88.9806 5.89665 -26.06 -1.32963e-005 -1.84543e-006 -2.34952e-006 -5.6735 16.4381 1.77982 1.0838e-005 6.01976e-006 3.00512 -8.02895 -4.95146 -0.697684 178.195 5.0016 1.59296 180 7.01494e-015 178.714 177.571 27.8773 179.2 8.82202e-007 7.64186e-007 0.354905 -17.545 66.8363 18.6296 8.10837 24.8145 -3.47646 -179.914 5.23944 -1.04633 4.54188e-006 -4.6773e-006 -1.29306 -5.6176 -32.7271 -0.466234 -1.85713e-006 -6.85738e-006 -0.446682 18.8144 68.3639 -19.8286 -8.10061 24.6981 3.46766 
33.8318 100.13 -3.40173 0.9106 -5.44633 3.86155 0.15034 -0.897783 0.264881 0.302369 2.20793 0.512474 0.296515 3.85296 0.507778 -2.04116 22.289 -1.27192 -0.401147 -14.0545 -2.04485 67.3625 -3.91823 -3.06356 90.383 12.3003 38.7728 2.65643e-006 2.02977e-006 2.71167e-006 -0.492684 23.0408 1.30099 8.06952e-006 -1.04397e-006 -3.00038 8.02907 -4.95144 0.69767 -63.671 -2.21031 1.83808 -89.2028 5.85638 -26.0631 -1.32963e-005 -1.84543e-006 -2.34952e-006 -5.66262 16.0424 1.75105 1.0838e-005 6.01976e-006 3.00512 -8.02895 -4.95146 -0.697684 178.138 5.18958 1.67298 180 7.01493e-015 178.71 177.586 28.4348 179.195 8.82202e-007 7.64187e-007 0.371983 -17.6505 66.9806 18.7357 8.13649 25.2327 -3.48774 -179.925 5.35757 -1.14372 4.54188e-006 -4.6773e-006 -1.30488 -5.66267 -33.1206 -0.491518 -1.85713e-006 -6.85738e-006 -0.458636 19.0108 68.4342 -19.8991 -8.13649 25.2327 3.48773 
33.8306 99.887 -3.42482 0.924465 -5.45189 3.91022 0.157985 -0.882281 0.265398 0.317618 2.23897 0.512558 0.311781 3.884 0.507609 -2.23181 22.1897 -1.25077 -0.261505 -14.0837 -2.05629 67.3982 -3.90758 -3.0604 90.8039 12.2154 38.8022 2.65643e-006 2.02977e-006 2.71167e-006 -0.545476 22.8334 1.3205 8.06952e-006 -1.04397e-006 -3.00038 8.02907 -4.95144 0.69767 -63.8596 -2.11566 1.80271 -89.4417 5.82056 -26.0627 -1.32963e-005 -1.84543e-006 -2.34952e-006 -5.64924 15.6613 1.72309 1.0838e-005 6.01976e-006 3.00513 -8.02895 -4.95146 -0.697684 178.076 5.38598 1.7556 180 7.01492e-015 178.706 177.597 28.9984 179.192 8.82202e-007 7.64187e-007 0.390944 -17.7797 67.1565 18.8671 8.17534 25.8058 -3.50361 -179.933 5.47023 -1.245 4.54188e-006 -4.67731e-006 -1.3197 -5.70327 -33.4966 -0.514638 -1.85713e-006 -6.85738e-006 -0.471318 19.2608 68.509 -19.9773 -8.18603 25.9606 3.51597 
33.8457 99.6171 -3.461 0.93535 -5.4582 3.96182 0.167042 -0.865766 0.26683 0.335695 2.27205 0.514306 0.329857 3.91708 0.509059 -2.41473 22.0793 -1.23682 -0.129881 -14.1079 -2.07305 67.4257 -3.9038 -3.06028 91.2339 12.1185 38.8229 2.65643e-006 2.02977e-006 2.71167e-006 -0.586136 22.6234 1.33454 8.06952e-006 -1.04397e-006 -3.00038 8.02907 -4.95144 0.69767 -64.0429 -2.01885 1.76617 -89.6988 5.79147 -26.0607 -1.32963e-005 -1.84543e-006 -2.34952e-006 -5.63224 15.2891 1.69484 1.0838e-005 6.01976e-006 3.00514 -8.02895 -4.95146 -0.697684 178.004 5.59559 1.84282 180 7.01491e-015 178.703 177.605 29.5794 179.189 8.82202e-007 7.64187e-007 0.411406 -17.9244 67.3526 19.0162 8.2267 26.5558 -3.52509 -179.938 5.57762 -1.35151 4.54188e-006 -4.67731e-006 -1.33807 -5.74001 -33.8546 -0.534977 -1.85713e-006 -6.85738e-006 -0.483991 19.5595 68.5753 -20.0518 -8.25162 26.9062 3.55425 
33.8485 99.3761 -3.49185 0.943421 -5.46537 4.01607 0.177345 -0.848265 0.269063 0.356265 2.30711 0.517511 0.350413 3.95213 0.511925 -2.5894 21.959 -1.22954 -0.00637617 -14.1276 -2.09454 67.4466 -3.90609 -3.06289 91.6707 12.012 38.8361 2.65643e-006 2.02977e-006 2.71167e-006 -0.616307 22.4107 1.3438 8.06952e-006 -1.04397e-006 -3.00038 8.02907 -4.95144 0.69767 -64.221 -1.92019 1.72862 -89.9718 5.76912 -26.0574 -1.32963e-005 -1.84543e-006 -2.34952e-006 -5.61177 14.9251 1.66636 1.0838e-005 6.01976e-006 3.00515 -8.02895 -4.95146 -0.697684 177.923 5.81649 1.93434 180 7.0149e-015 178.701 177.611 30.1759 179.186 8.82202e-007 7.64187e-007 0.433339 -18.0863 67.5693 19.1844 8.28917 27.4554 -3.55202 -179.941 5.68117 -1.46276 4.54188e-006 -4.67731e-006 -1.35944 -5.77313 -34.1985 -0.553065 -1.85713e-006 -6.85738e-006 -0.496873 19.9021 68.6373 -20.1257 -8.33196 28.0368 3.60227 
33.8651 99.0886 -3.50489 0.94885 -5.47352 4.07272 0.188727 -0.829808 0.271983 0.378992 2.34408 0.521964 0.373113 3.9891 0.516004 -2.7553 21.8296 -1.2284 0.108912 -14.1433 -2.12021 67.4624 -3.91368 -3.06792 92.1121 11.8983 38.8426 2.65643e-006 2.02977e-006 2.71167e-006 -0.637616 22.195 1.34897 8.06952e-006 -1.04397e-006 -3.00038 8.02907 -4.95144 0.69767 -64.394 -1.81999 1.69022 -90.2585 5.75353 -26.0528 -1.32963e-005 -1.84543e-006 -2.34952e-006 -5.58798 14.568 1.63769 1.0838e-005 6.01976e-006 3.00516 -8.02895 -4.95146 -0.697684 177.836 6.04678 2.02985 180 7.0149e-015 178.698 177.614 30.7858 179.185 8.82202e-007 7.64187e-007 0.456713 -18.2673 67.807 19.3731 8.36135 28.4776 -3.58422 -179.939 5.78231 -1.57825 4.54188e-006 -4.67732e-006 -1.38327 -5.80292 -34.5323 -0.569449 -1.85713e-006 -6.85737e-006 -0.510179 20.2839 68.6993 -20.2026 -8.4258 29.3196 3.65977 
33.8699 98.8441 -3.54169 0.951805 -5.48278 4.1315 0.201022 -0.810421 0.275478 0.403543 2.38293 0.527457 0.397628 4.02794 0.521093 -2.91187 21.6923 -1.23285 0.215888 -14.1554 -2.14947 67.4746 -3.92575 -3.07506 92.5559 11.7798 38.8435 2.65643e-006 2.02977e-006 2.71167e-006 -0.651686 21.9761 1.35071 8.06952e-006 -1.04397e-006 -3.00038 8.02907 -4.95144 0.69767 -64.5623 -1.71858 1.65112 -90.5568 5.74472 -26.0473 -1.32963e-005 -1.84543e-006 -2.34952e-006 -5.56102 14.217 1.60886 1.0838e-005 6.01976e-006 3.00517 -8.02895 -4.95146 -0.697684 177.743 6.28453 2.12906 180 7.01489e-015 178.697 177.614 31.4072 179.185 8.82202e-007 7.64187e-007 0.481495 -18.4696 68.0661 19.5838 8.44181 29.5953 -3.62147 -179.934 5.88248 -1.69747 4.54188e-006 -4.67732e-006 -1.40901 -5.82966 -34.86 -0.584689 -1.85713e-006 -6.85736e-006 -0.524128 20.7005 68.7656 -20.2858 -8.53187 30.7219 3.72645 
33.872 98.5576 -3.58372 0.952458 -5.49327 4.19212 0.214064 -0.790133 0.279434 0.429583 2.42357 0.53378 0.423624 4.06858 0.526988 -3.05861 21.5479 -1.24235 0.314455 -14.1645 -2.18177 67.4846 -3.94153 -3.084 92.9998 11.6587 38.8398 2.65643e-006 2.02977e-006 2.71167e-006 -0.660127 21.7539 1.34972 8.06952e-006 -1.04397e-006 -3.00038 8.02907 -4.95144 0.69767 -64.7259 -1.61627 1.61149 -90.8646 5.74272 -26.0409 -1.32963e-005 -1.84543e-006 -2.34952e-006 -5.53104 13.871 1.57994 1.0838e-005 6.01976e-006 3.00518 -8.02895 -4.95146 -0.697684 177.646 6.52783 2.23166 180 7.01489e-015 178.695 177.61 32.038 179.187 8.82202e-007 7.64186e-007 0.507657 -18.6956 68.347 19.8184 8.52908 30.7814 -3.66345 -179.925 5.98312 -1.81993 4.54188e-006 -4.67732e-006 -1.4361 -5.85368 -35.1855 -0.599356 -1.85713e-006 -6.85735e-006 -0.538934 21.1474 68.8404 -20.3791 -8.6488 32.211 3.80189 
